<svg id="US_UK_Download_on_the" xmlns="http://www.w3.org/2000/svg" width="150" height="44" viewBox="0 0 150 44"><style>.st0{fill:#FFF}</style><path d="M150 39.6c0 2.4-1.9 4.4-4.3 4.4H4.3C1.9 44 0 42 0 39.6V4.4C0 2 1.9 0 4.3 0h141.4c2.4 0 4.3 2 4.3 4.4v35.2z"/><path class="st0" d="M32.9 21.8c0-3.7 3-5.5 3.1-5.6-1.7-2.5-4.3-2.9-5.3-2.9-2.2-.2-4.4 1.4-5.5 1.4-1.2 0-2.9-1.3-4.8-1.3-2.4 0-4.7 1.5-5.9 3.7-2.6 4.5-.6 11.2 1.8 14.8 1.2 1.8 2.7 3.8 4.5 3.7 1.8-.1 2.5-1.2 4.7-1.2s2.8 1.2 4.7 1.1c2 0 3.2-1.8 4.4-3.6 1.4-2 2-4.1 2-4.2.1 0-3.6-1.5-3.7-5.9zM29.3 10.8c1-1.3 1.7-3 1.5-4.7-1.4.1-3.2 1-4.2 2.2-.9 1.1-1.7 2.9-1.5 4.5 1.6.2 3.2-.7 4.2-2zM59.4 35.3h-2.6l-1.4-4.5h-4.9l-1.3 4.5h-2.5L51.5 20h3l4.9 15.3zm-4.3-6.4l-1.3-4c-.1-.4-.4-1.4-.8-2.9-.1.7-.4 1.6-.7 2.9l-1.2 4h4zM71.8 29.6c0 1.9-.5 3.4-1.5 4.5-.9 1-2 1.5-3.3 1.5-1.4 0-2.4-.5-3.1-1.6v5.8h-2.4v-12c0-1.2 0-2.4-.1-3.6h2.1l.1 1.8c.8-1.3 2-2 3.6-2 1.3 0 2.3.5 3.2 1.5 1 1.1 1.4 2.4 1.4 4.1zm-2.4.1c0-1.1-.2-2-.7-2.7-.5-.7-1.2-1.1-2.1-1.1-.6 0-1.1.2-1.6.6-.5.4-.8.9-.9 1.6-.1.3-.1.6-.1.7v1.8c0 .8.2 1.5.7 2 .5.6 1.1.8 1.9.8.9 0 1.6-.4 2.1-1.1.4-.5.7-1.4.7-2.6zM84.3 29.6c0 1.9-.5 3.4-1.5 4.5-.9 1-2 1.5-3.3 1.5-1.4 0-2.4-.5-3.1-1.6v5.8H74v-12c0-1.2 0-2.4-.1-3.6H76l.1 1.8c.8-1.3 2-2 3.6-2 1.3 0 2.3.5 3.2 1.5 1 1.1 1.4 2.4 1.4 4.1zm-2.5.1c0-1.1-.2-2-.7-2.7-.5-.7-1.2-1.1-2.1-1.1-.6 0-1.1.2-1.6.6-.5.4-.8.9-.9 1.6-.1.3-.1.6-.1.7v1.8c0 .8.2 1.5.7 2 .5.6 1.1.8 1.9.8.9 0 1.6-.4 2.1-1.1.5-.5.7-1.4.7-2.6zM98.2 31c0 1.3-.4 2.4-1.3 3.2-1 .9-2.3 1.3-4.1 1.3-1.6 0-2.9-.3-3.9-1l.6-2c1.1.7 2.2 1 3.5 1 .9 0 1.6-.2 2.1-.6.5-.4.8-1 .8-1.7 0-.6-.2-1.1-.6-1.6-.4-.4-1.1-.8-2.1-1.2-2.6-1-3.9-2.5-3.9-4.4 0-1.3.5-2.3 1.4-3.1.9-.8 2.1-1.2 3.7-1.2 1.4 0 2.5.2 3.4.7l-.6 2c-.8-.5-1.8-.7-2.9-.7-.8 0-1.5.2-2 .6-.4.4-.6.8-.6 1.4 0 .6.2 1.1.7 1.5.4.4 1.1.8 2.2 1.2 1.3.5 2.2 1.2 2.8 1.9.5.7.8 1.6.8 2.7zM106.1 26h-2.6v5.4c0 1.4.5 2 1.4 2 .4 0 .8 0 1.1-.1l.1 1.9c-.5.2-1.1.3-1.9.3-.9 0-1.7-.3-2.2-.9-.5-.6-.8-1.6-.8-3V26h-1.6v-1.8h1.6v-2l2.4-.7v2.8h2.6c-.1-.1-.1 1.7-.1 1.7zM118.1 29.6c0 1.7-.5 3.1-1.4 4.2-1 1.1-2.3 1.7-4 1.7-1.6 0-2.8-.5-3.8-1.6s-1.4-2.4-1.4-4.1c0-1.7.5-3.1 1.5-4.2s2.3-1.6 3.9-1.6 2.9.5 3.8 1.6c.9 1 1.4 2.4 1.4 4zm-2.5.1c0-1-.2-1.9-.6-2.6-.5-.9-1.2-1.3-2.2-1.3-1 0-1.7.4-2.2 1.3-.4.7-.6 1.6-.6 2.7 0 1 .2 1.9.6 2.6.5.9 1.2 1.3 2.2 1.3.9 0 1.6-.4 2.2-1.3.4-.8.6-1.7.6-2.7zM125.9 26.4c-.2 0-.5-.1-.8-.1-.8 0-1.5.3-2 1-.4.6-.6 1.3-.6 2.2v5.8h-2.4v-7.6c0-1.3 0-2.4-.1-3.5h2.1l.1 2.1h.1c.3-.7.7-1.3 1.2-1.8.5-.4 1.1-.6 1.7-.6h.6c.1.1.1 2.5.1 2.5zM136.6 29.2c0 .4 0 .8-.1 1.1h-7.2c0 1.1.4 1.9 1 2.5.6.5 1.4.8 2.4.8 1.1 0 2-.2 2.9-.5l.4 1.7c-1 .5-2.2.7-3.6.7-1.7 0-3-.5-3.9-1.5-1-1-1.4-2.4-1.4-4.1 0-1.7.4-3.1 1.3-4.2.9-1.2 2.2-1.8 3.8-1.8 1.6 0 2.7.6 3.5 1.8.6 1 .9 2.1.9 3.5zm-2.3-.6c0-.7-.1-1.4-.5-1.9-.4-.7-1.1-1-1.9-1-.8 0-1.4.3-1.9 1-.4.5-.6 1.2-.7 1.9h5z"/><g><path class="st0" d="M54.3 10.5c0 1.4-.4 2.4-1.2 3.1-.7.6-1.8.9-3.1.9-.7 0-1.2 0-1.7-.1V7c.6-.1 1.3-.2 2-.2 1.3 0 2.3.3 2.9.9.7.7 1.1 1.6 1.1 2.8zm-1.3 0c0-.9-.2-1.6-.7-2-.5-.5-1.1-.7-2-.7-.4 0-.7 0-1 .1v5.6h.8c.9 0 1.6-.3 2.1-.8.6-.4.8-1.2.8-2.2zM60.9 11.7c0 .8-.2 1.5-.7 2.1-.5.6-1.1.8-1.9.8-.8 0-1.4-.3-1.9-.8s-.7-1.2-.7-2 .2-1.5.7-2.1c.5-.5 1.1-.8 1.9-.8.8 0 1.4.3 1.9.8.4.5.7 1.2.7 2zm-1.3 0c0-.5-.1-.9-.3-1.3-.2-.4-.6-.6-1.1-.6-.5 0-.8.2-1.1.6-.2.4-.3.8-.3 1.3s.1.9.3 1.3c.3.4.6.6 1.1.6.5 0 .8-.2 1.1-.7.2-.2.3-.7.3-1.2zM69.7 9L68 14.4h-1l-.7-2.4c-.2-.6-.3-1.2-.4-1.8-.1.6-.2 1.2-.4 1.8l-.7 2.4h-1.1L62 9h1.2l.6 2.6c.1.6.3 1.2.4 1.7.1-.5.2-1 .4-1.7l.8-2.6h1l.7 2.5c.2.6.3 1.2.4 1.8.1-.6.2-1.2.4-1.8l.7-2.5h1.1zM75.8 14.4h-1.2v-3.1c0-1-.4-1.4-1.1-1.4-.4 0-.6.1-.9.4-.2.3-.3.6-.3.9v3.2h-1.2v-3.9-1.6h1l.1.8c.1-.3.3-.5.6-.7.4 0 .8-.1 1.2-.1.5 0 .9.2 1.2.5.4.4.6 1 .6 1.8v3.2zM79.1 14.4h-1.2V6.5h1.2v7.9zM86 11.7c0 .8-.2 1.5-.7 2.1-.5.6-1.1.8-1.9.8-.8 0-1.4-.3-1.9-.8s-.7-1.2-.7-2 .2-1.5.7-2.1c.5-.5 1.1-.8 1.9-.8.8 0 1.4.3 1.9.8s.7 1.2.7 2zm-1.2 0c0-.5-.1-.9-.3-1.3-.2-.4-.6-.6-1.1-.6-.5 0-.8.2-1.1.6-.2.4-.3.8-.3 1.3s.1.9.3 1.3c.3.4.6.6 1.1.6.5 0 .8-.2 1.1-.7.2-.2.3-.7.3-1.2zM91.8 14.4h-1.1l-.1-.6c-.4.5-.9.7-1.6.7-.5 0-.9-.2-1.2-.5-.3-.3-.4-.7-.4-1.1 0-.7.3-1.2.8-1.5.5-.4 1.3-.5 2.3-.5v-.1c0-.7-.4-1.1-1.1-1.1-.5 0-1 .1-1.4.4l-.2-.8c.5-.3 1.1-.5 1.8-.5 1.4 0 2.1.7 2.1 2.2v2c0 .7 0 1.1.1 1.4zm-1.3-1.8v-.8c-1.3 0-2 .3-2 1.1 0 .3.1.5.2.6.2.1.3.2.6.2s.5-.1.7-.3c.2-.2.4-.4.4-.6.1-.1.1-.1.1-.2zM98.5 14.4h-1l-.1-.9c-.3.7-.9 1-1.7 1-.6 0-1.2-.3-1.6-.8-.4-.5-.6-1.2-.6-2 0-.9.2-1.6.7-2.1.4-.5 1-.8 1.6-.8.7 0 1.2.2 1.5.7v-3h1.2V13c-.1.5-.1 1 0 1.4zm-1.3-2.2v-.9-.4c-.1-.3-.2-.5-.4-.7-.2-.2-.5-.3-.8-.3-.4 0-.8.2-1 .5-.3.4-.4.8-.4 1.4 0 .5.1 1 .4 1.3.3.4.6.5 1 .5s.7-.1.9-.4c.2-.3.3-.7.3-1zM108.6 11.7c0 .8-.2 1.5-.7 2.1-.5.6-1.1.8-1.9.8-.8 0-1.4-.3-1.9-.8s-.7-1.2-.7-2 .2-1.5.7-2.1c.5-.5 1.1-.8 1.9-.8.8 0 1.4.3 1.9.8.4.5.7 1.2.7 2zm-1.3 0c0-.5-.1-.9-.3-1.3-.2-.4-.6-.6-1.1-.6-.5 0-.8.2-1.1.6-.2.4-.3.8-.3 1.3s.1.9.3 1.3c.3.4.6.6 1.1.6.5 0 .8-.2 1.1-.7.2-.2.3-.7.3-1.2zM114.9 14.4h-1.2v-3.1c0-1-.4-1.4-1.1-1.4-.4 0-.6.1-.9.4-.2.3-.3.6-.3.9v3.2h-1.2v-3.9-1.6h1l.1.8c.1-.3.3-.5.6-.7.3-.2.7-.3 1.1-.3.5 0 .9.2 1.2.5.4.4.6 1 .6 1.8v3.4zM122.9 9.9h-1.3v2.6c0 .7.2 1 .7 1 .2 0 .4 0 .5-.1v.9c-.2.1-.5.1-.9.1-.5 0-.8-.1-1.1-.4-.3-.3-.4-.8-.4-1.5V9.9h-.8V9h.8V8l1.2-.4V9h1.3v.9zM129.1 14.4h-1.2v-3.1c0-1-.4-1.5-1.1-1.5-.5 0-.9.3-1.1.8 0 .1-.1.3-.1.4v3.3h-1.2V6.5h1.2v3.3c.4-.6.9-.9 1.6-.9.5 0 .9.2 1.2.5.4.4.6 1 .6 1.8.1 0 .1 3.2.1 3.2zM135.6 11.5v.5H132c0 .5.2.9.5 1.2.3.3.7.4 1.2.4s1-.1 1.4-.3l.2.8c-.5.2-1.1.3-1.8.3-.8 0-1.5-.2-1.9-.7-.5-.5-.7-1.2-.7-2s.2-1.5.7-2c.5-.6 1.1-.9 1.9-.9.8 0 1.3.3 1.7.9.2.5.4 1.1.4 1.8zm-1.2-.3c0-.4-.1-.7-.2-.9-.2-.3-.5-.5-.9-.5s-.7.2-.9.5c-.2.3-.3.6-.4.9h2.4z"/></g></svg>